<?xml version="1.0" encoding="UTF-8" standalone="no"?>
<!-- Created with Inkscape (http://www.inkscape.org/) -->

<svg
   xmlns:dc="http://purl.org/dc/elements/1.1/"
   xmlns:cc="http://creativecommons.org/ns#"
   xmlns:rdf="http://www.w3.org/1999/02/22-rdf-syntax-ns#"
   xmlns:svg="http://www.w3.org/2000/svg"
   xmlns="http://www.w3.org/2000/svg"
   version="1.1"
   width="694.6875"
   height="637.88745"
   id="svg2">
  <defs
     id="defs4" />
  <metadata
     id="metadata7">
    <rdf:RDF>
      <cc:Work
         rdf:about="">
        <dc:format>image/svg+xml</dc:format>
        <dc:type
           rdf:resource="http://purl.org/dc/dcmitype/StillImage" />
        <dc:title></dc:title>
      </cc:Work>
    </rdf:RDF>
  </metadata>
  <g
     transform="translate(-17.71875,-61.67497)"
     id="layer1">
    <path
       d="M 142.625,413.71875 80.15625,521.875 l -62.4375,108.1875 124.90625,0 215.21875,0 -0.1875,0.3125 113.53125,0 113.5,0 -56.75,-99.65625 -56.75,-99.625 -56.75,99.625 -28.59375,50.1875 -146.6875,0 -0.0625,-0.0937 -6.46875,0 -124.90625,0 62.4375,-108.15625 3.25,-5.625 -30.78125,-53.3125 z"
       id="path3027"
       style="fill:#9e830f;fill-opacity:1;fill-rule:evenodd;stroke:none" />
    <path
       d="m 432.09273,61.67497 -46.56534,80.53535 -0.0308,-0.0307 -211.88464,366.42199 0.33877,0.1845 -30.98197,50.30769 110.5003,0 110.46951,0 -55.21936,-89.66822 -29.16493,-47.3249 85.339,-147.57126 0.15399,0 3.20291,-5.50432 61.53272,-106.42725 61.56358,106.39645 3.17211,5.56582 60.67045,0 L 493.6871,168.10217 432.09273,61.67497 z"
       id="path3027-0"
       style="fill:#222020;fill-opacity:1;fill-rule:evenodd;stroke:none" />
    <path
       d="m 431.21875,213.25 -56.125,97.21875 -56.15625,97.25 112.28125,0 55.96875,0 71.96875,124.625 -0.0937,0.125 3.25,5.59375 62.4375,108.15625 -124.875,0 -6.5,0 -30.78125,53.3125 124.9062,0.0312 124.90625,-0.0312 L 649.96875,591.375 587.5,483.21875 l -130.40625,-225.875 -0.3125,0.1875 -25.5625,-44.28125 z"
       id="path3027-8"
       style="fill:#c7a900;fill-opacity:1;fill-rule:evenodd;stroke:none" />
  </g>
</svg>
